<svg xmlns="http://www.w3.org/2000/svg" width="57" height="63" viewBox="0 0 57 63"><g><g><g><path fill="#484848" d="M16.477 28.221a15.876 15.876 0 1 1 19.967 0c9.621 2.668 16.177 8.758 16.468 16.258v5.897a1.326 1.326 0 0 1-2.643 0c0-.068 0-5.542-.012-5.897-.13-6.504-7.238-12.514-17.377-14.367a1.326 1.326 0 0 1-.367-2.474 13.223 13.223 0 1 0-12.104 0 1.326 1.326 0 0 1-.367 2.474c-10.242 1.88-17.39 7.975-17.39 14.86v9.64c-.027.029-.213 1.138-1.324 1.138S0 54.625 0 54.612V45c.01-7.458 6.64-14.051 16.477-16.779z"/></g><g><path fill="#ed1c24" d="M0 58.25C0 57.625.625 57 1.25 57h50.5c.625 0 1.25.625 1.25 1.25s-.625 1.25-1.25 1.25H1.25C.625 59.5 0 58.875 0 58.25z"/></g><g><path fill="#ed1c24" d="M46.975 58.574c-.213-.212-.213-.636 0-.848l4.1-4.102c.213-.212.637-.212.85 0l4.1 4.102c.213.212.213.636 0 .848l-4.1 4.101c-.213.212-.637.212-.85 0z"/></g></g></g></svg>